<svg width="900" height="900" viewBox="0 0 900 900" fill="none" xmlns="http://www.w3.org/2000/svg">
<path d="M29 60C29 46.1929 40.1929 35 54 35H549.555C563.362 35 574.555 46.1929 574.555 60V129.787C574.555 143.594 563.362 154.787 549.555 154.787H301.278V765.749H335.25V644C335.25 630.193 346.443 619 360.25 619H641.5V865.989H208.374C194.567 865.989 183.374 854.796 183.374 840.989V154.787H54C40.1929 154.787 29 143.594 29 129.787V60Z" fill="#0F5142"/>
<rect x="198" y="399" width="94" height="362" fill="#D1EADB"/>
<path d="M448 627H631V866H351H421C435.912 866 448 853.912 448 839V791.5V627Z" fill="#CFE9D8"/>
<path d="M335 209H424.102C437.869 209 449.046 220.131 449.102 233.898L449.898 428.102C449.954 441.869 461.131 453 474.898 453H652C665.807 453 677 441.807 677 428V331.5C677 317.693 688.193 306.5 702 306.5H776.808C790.69 306.5 801.914 317.81 801.808 331.691L800 568.5V840.5C800 854.307 788.807 865.5 775 865.5H702C688.193 865.5 677 854.307 677 840.5V597C677 583.193 665.807 572 652 572H335V209Z" fill="#105143"/>
<rect x="679" y="151" width="123" height="123" rx="25" fill="#8BDA99"/>
<rect x="772" y="1" width="94" height="94" rx="47" fill="#FD8880"/>
</svg>
